<svg width="13" height="9" viewBox="0 0 13 9" fill="none" xmlns="http://www.w3.org/2000/svg">
<path opacity="0.8" d="M10.2333 0V6.432C10.5373 6.216 10.9013 6.02 11.3253 5.844V6.768C11.0293 7.016 10.7693 7.276 10.5453 7.548C10.3213 7.82 10.1373 8.1 9.99327 8.388H9.47727C9.33327 8.1 9.15327 7.82 8.93727 7.548C8.71327 7.276 8.45327 7.016 8.15727 6.768V5.844C8.36527 5.924 8.56127 6.012 8.74527 6.108C8.92127 6.204 9.08527 6.308 9.23727 6.42V0H10.2333Z" fill="#495057"/>
<path opacity="0.5" d="M4.00527 0C4.29327 0.584 4.73327 1.128 5.32527 1.632V2.556C5.11727 2.476 4.92527 2.384 4.74927 2.28C4.56527 2.184 4.39327 2.08 4.23327 1.968L4.23327 8.388H3.24927L3.24927 1.956C3.08927 2.068 2.92127 2.172 2.74527 2.268C2.56127 2.372 2.36527 2.464 2.15727 2.544V1.632C2.74927 1.128 3.19327 0.584 3.48927 0H4.00527Z" fill="#495057"/>
</svg>
