<svg width="12" height="9" viewBox="0 0 12 9" fill="none" xmlns="http://www.w3.org/2000/svg">
<path opacity="0.5" d="M3.492 0L3.492 6.432C3.796 6.216 4.16 6.02 4.584 5.844V6.768C4.288 7.016 4.028 7.276 3.804 7.548C3.58 7.82 3.396 8.1 3.252 8.388H2.736C2.592 8.1 2.412 7.82 2.196 7.548C1.972 7.276 1.712 7.016 1.416 6.768V5.844C1.624 5.924 1.82 6.012 2.004 6.108C2.18 6.204 2.344 6.308 2.496 6.42L2.496 0H3.492Z" fill="#495057"/>
<path opacity="0.5" d="M9.264 0C9.552 0.584 9.992 1.128 10.584 1.632V2.556C10.376 2.476 10.184 2.384 10.008 2.28C9.824 2.184 9.652 2.08 9.492 1.968V8.388H8.508V1.956C8.348 2.068 8.18 2.172 8.004 2.268C7.82 2.372 7.624 2.464 7.416 2.544V1.632C8.008 1.128 8.452 0.584 8.748 0H9.264Z" fill="#495057"/>
</svg>
